<svg width="149" height="52" viewBox="0 0 149 52" fill="none" xmlns="http://www.w3.org/2000/svg">
<path d="M13.944 23.512L19.488 9.52H26.496V10.48C25.968 10.48 25.536 10.536 25.2 10.648C24.88 10.744 24.632 10.928 24.456 11.2C24.28 11.472 24.16 11.848 24.096 12.328C24.048 12.792 24.024 13.384 24.024 14.104V23.416C24.024 24.216 24.056 24.848 24.12 25.312C24.184 25.776 24.312 26.136 24.504 26.392C24.696 26.648 24.968 26.816 25.32 26.896C25.688 26.976 26.168 27.024 26.76 27.04V28H17.736V27.04C18.328 27.024 18.8 26.976 19.152 26.896C19.52 26.8 19.8 26.632 19.992 26.392C20.2 26.152 20.336 25.816 20.4 25.384C20.464 24.936 20.496 24.336 20.496 23.584V12.352H20.376L13.92 28.24H12.144L5.472 12.352H5.376V23.416C5.376 24.216 5.408 24.848 5.472 25.312C5.536 25.776 5.664 26.136 5.856 26.392C6.048 26.648 6.32 26.816 6.672 26.896C7.04 26.976 7.52 27.024 8.112 27.04V28H0.72V27.04C1.312 27.024 1.792 26.976 2.16 26.896C2.528 26.8 2.808 26.632 3 26.392C3.208 26.152 3.344 25.816 3.408 25.384C3.472 24.936 3.504 24.336 3.504 23.584V13.936C3.504 13.264 3.472 12.704 3.408 12.256C3.344 11.808 3.224 11.456 3.048 11.2C2.872 10.928 2.616 10.744 2.28 10.648C1.96 10.536 1.528 10.48 0.984 10.48V9.52H8.256L13.848 23.512H13.944ZM49.4527 12.544C49.2127 12.128 48.9887 11.784 48.7807 11.512C48.5887 11.24 48.3887 11.032 48.1807 10.888C47.9727 10.728 47.7487 10.624 47.5087 10.576C47.2687 10.512 46.9967 10.48 46.6927 10.48V9.52H54.7567V10.48C54.0847 10.48 53.6127 10.544 53.3407 10.672C53.0687 10.8 52.9327 10.992 52.9327 11.248C52.9327 11.408 52.9807 11.6 53.0767 11.824C53.1727 12.048 53.3247 12.352 53.5327 12.736L56.9647 19.288H57.0607L60.0847 14.248C60.6127 13.352 60.9807 12.688 61.1887 12.256C61.3967 11.808 61.5007 11.456 61.5007 11.2C61.5007 10.928 61.3727 10.744 61.1167 10.648C60.8767 10.536 60.4207 10.48 59.7487 10.48V9.52H65.7727V10.48C65.4207 10.48 65.1007 10.536 64.8127 10.648C64.5247 10.76 64.2207 10.984 63.9007 11.32C63.5967 11.64 63.2447 12.096 62.8447 12.688C62.4607 13.264 61.9967 14.024 61.4527 14.968L57.9487 20.968V23.416C57.9487 24.216 57.9807 24.856 58.0447 25.336C58.1247 25.816 58.2527 26.184 58.4287 26.44C58.6207 26.68 58.8767 26.84 59.1967 26.92C59.5167 27 59.9327 27.04 60.4447 27.04V28H51.9007V27.04C52.3967 27.04 52.8047 27 53.1247 26.92C53.4607 26.84 53.7247 26.68 53.9167 26.44C54.1087 26.2 54.2367 25.856 54.3007 25.408C54.3807 24.944 54.4207 24.336 54.4207 23.584V21.376L49.4527 12.544ZM102.199 28H85.6631V27.04C86.1911 27.024 86.6231 26.976 86.9591 26.896C87.2951 26.816 87.5511 26.68 87.7271 26.488C87.9031 26.296 88.0231 26.024 88.0871 25.672C88.1511 25.32 88.1831 24.864 88.1831 24.304V13.216C88.1831 12.656 88.1511 12.208 88.0871 11.872C88.0391 11.52 87.9351 11.248 87.7751 11.056C87.6151 10.848 87.3831 10.712 87.0791 10.648C86.7911 10.568 86.4071 10.512 85.9271 10.48V9.52H94.2071V10.48C93.6631 10.496 93.2231 10.544 92.8871 10.624C92.5671 10.704 92.3191 10.848 92.1431 11.056C91.9671 11.264 91.8471 11.552 91.7831 11.92C91.7351 12.288 91.7111 12.776 91.7111 13.384V23.44C91.7111 24.112 91.7751 24.664 91.9031 25.096C92.0471 25.512 92.2871 25.84 92.6231 26.08C92.9591 26.304 93.4071 26.464 93.9671 26.56C94.5271 26.64 95.2231 26.68 96.0551 26.68C96.9831 26.68 97.7591 26.624 98.3831 26.512C99.0071 26.4 99.5271 26.192 99.9431 25.888C100.375 25.568 100.719 25.144 100.975 24.616C101.231 24.088 101.447 23.4 101.623 22.552H102.583L102.199 28ZM134.524 22.408H127.732C126.98 24.104 126.604 25.28 126.604 25.936C126.604 26.416 126.78 26.72 127.132 26.848C127.5 26.976 128.044 27.04 128.764 27.04V28H122.188V27.04C122.572 26.992 122.9 26.928 123.172 26.848C123.46 26.768 123.708 26.656 123.916 26.512C124.14 26.368 124.332 26.184 124.492 25.96C124.652 25.72 124.804 25.432 124.948 25.096L131.26 9.28H133.036L138.772 23.296C139.108 24.112 139.388 24.752 139.612 25.216C139.852 25.68 140.1 26.04 140.356 26.296C140.628 26.536 140.932 26.704 141.268 26.8C141.62 26.896 142.068 26.968 142.612 27.016V28H133.54V27.016C134.308 26.984 134.86 26.904 135.196 26.776C135.532 26.648 135.7 26.392 135.7 26.008C135.7 25.784 135.644 25.496 135.532 25.144C135.42 24.792 135.268 24.36 135.076 23.848L134.524 22.408ZM128.284 20.968H133.996L131.236 13.696H131.14L128.284 20.968Z" fill="#453051"/>
<path d="M2.21 45.4C2.21 45.68 2.21667 45.9 2.23 46.06C2.24333 46.22 2.27667 46.3433 2.33 46.43C2.39 46.51 2.47333 46.5633 2.58 46.59C2.68667 46.6167 2.83667 46.6367 3.03 46.65V47H0.37V46.65C0.563333 46.6367 0.716667 46.6167 0.83 46.59C0.943333 46.5633 1.03 46.51 1.09 46.43C1.15 46.35 1.18667 46.2367 1.2 46.09C1.22 45.9367 1.23 45.7333 1.23 45.48V44.2C1.23 43.82 1.22333 43.5033 1.21 43.25C1.20333 42.9967 1.18667 42.8233 1.16 42.73C1.14 42.6433 1.11667 42.5767 1.09 42.53C1.06333 42.4767 1.02 42.4367 0.96 42.41C0.9 42.3767 0.82 42.3567 0.72 42.35C0.626667 42.3367 0.503333 42.33 0.35 42.33V41.98L1.98 41.6L2.11 42.6H2.16C2.46 42.26 2.77333 42.01 3.1 41.85C3.43333 41.6833 3.8 41.6 4.2 41.6C4.62 41.6 4.97333 41.6867 5.26 41.86C5.54667 42.0267 5.74667 42.27 5.86 42.59H5.9C6.14667 42.2767 6.44667 42.0333 6.8 41.86C7.15333 41.6867 7.53 41.6 7.93 41.6C8.24333 41.6 8.52667 41.6533 8.78 41.76C9.04 41.86 9.23667 42 9.37 42.18C9.49 42.3333 9.57333 42.5367 9.62 42.79C9.67333 43.0367 9.7 43.3767 9.7 43.81V45.4C9.7 45.6733 9.70667 45.89 9.72 46.05C9.74 46.21 9.77667 46.3333 9.83 46.42C9.88333 46.5067 9.96333 46.5633 10.07 46.59C10.1833 46.6167 10.3367 46.6367 10.53 46.65V47H7.87V46.65C8.05667 46.6433 8.20667 46.6267 8.32 46.6C8.43333 46.5667 8.52 46.51 8.58 46.43C8.64 46.3433 8.67667 46.2267 8.69 46.08C8.71 45.9333 8.72 45.7333 8.72 45.48V44.22C8.72 43.84 8.7 43.52 8.66 43.26C8.62 42.9933 8.55333 42.78 8.46 42.62C8.36667 42.4533 8.24333 42.3333 8.09 42.26C7.94333 42.1867 7.76333 42.15 7.55 42.15C7.25667 42.15 6.98 42.2333 6.72 42.4C6.46667 42.56 6.26667 42.7767 6.12 43.05C6.08667 43.1167 6.05667 43.1833 6.03 43.25C6.01 43.31 5.99333 43.38 5.98 43.46C5.96667 43.5333 5.95667 43.6233 5.95 43.73C5.95 43.8367 5.95 43.97 5.95 44.13V45.4C5.95 45.6733 5.95667 45.89 5.97 46.05C5.98333 46.21 6.01667 46.3333 6.07 46.42C6.13 46.5067 6.21667 46.5633 6.33 46.59C6.44333 46.6167 6.59667 46.6367 6.79 46.65V47H4.13V46.65C4.31667 46.6367 4.46667 46.6167 4.58 46.59C4.69333 46.5633 4.77667 46.51 4.83 46.43C4.89 46.35 4.92667 46.2367 4.94 46.09C4.96 45.9367 4.97 45.7333 4.97 45.48V44.22C4.97 43.8333 4.95 43.51 4.91 43.25C4.87 42.9833 4.80333 42.77 4.71 42.61C4.62333 42.4433 4.50667 42.3267 4.36 42.26C4.21333 42.1867 4.03333 42.15 3.82 42.15C3.52 42.15 3.23667 42.2333 2.97 42.4C2.71 42.56 2.51333 42.7767 2.38 43.05C2.34667 43.1167 2.31667 43.1833 2.29 43.25C2.27 43.31 2.25333 43.38 2.24 43.46C2.22667 43.5333 2.21667 43.6233 2.21 43.73C2.21 43.8367 2.21 43.97 2.21 44.13V45.4ZM20.5724 44.04C20.1924 44.1867 19.8691 44.33 19.6024 44.47C19.3424 44.61 19.1324 44.75 18.9724 44.89C18.8124 45.03 18.6958 45.17 18.6224 45.31C18.5558 45.45 18.5224 45.5933 18.5224 45.74C18.5224 45.96 18.5958 46.14 18.7424 46.28C18.8891 46.42 19.0824 46.49 19.3224 46.49C19.4958 46.49 19.6558 46.4467 19.8024 46.36C19.9558 46.2733 20.0891 46.1567 20.2024 46.01C20.3158 45.8567 20.4058 45.68 20.4724 45.48C20.5391 45.2733 20.5724 45.0567 20.5724 44.83V44.04ZM20.5724 43.61V43.2C20.5724 42.3867 20.2258 41.98 19.5324 41.98C19.4191 41.98 19.3224 41.99 19.2424 42.01C19.1624 42.03 19.0958 42.0633 19.0424 42.11C18.9891 42.1567 18.9391 42.2233 18.8924 42.31C18.8524 42.3967 18.8124 42.5033 18.7724 42.63C18.6991 42.8233 18.6258 42.9533 18.5524 43.02C18.4858 43.08 18.3858 43.11 18.2524 43.11C17.9191 43.11 17.7524 42.9433 17.7524 42.61C17.7524 42.29 17.9224 42.0433 18.2624 41.87C18.6024 41.69 19.0858 41.6 19.7124 41.6C20.3791 41.6 20.8524 41.72 21.1324 41.96C21.4124 42.1933 21.5524 42.5933 21.5524 43.16V45.4C21.5524 46.16 21.7024 46.54 22.0024 46.54C22.0958 46.54 22.1858 46.53 22.2724 46.51C22.3591 46.4833 22.4324 46.42 22.4924 46.32L22.6324 46.56C22.5524 46.7133 22.4058 46.8433 22.1924 46.95C21.9791 47.05 21.7558 47.1 21.5224 47.1C21.2291 47.1 21.0091 47.0067 20.8624 46.82C20.7224 46.6333 20.6524 46.37 20.6524 46.03H20.6024C20.4291 46.3567 20.1891 46.6167 19.8824 46.81C19.5758 46.9967 19.2358 47.09 18.8624 47.09C18.4424 47.09 18.1124 46.9833 17.8724 46.77C17.6324 46.5567 17.5124 46.27 17.5124 45.91C17.5124 45.75 17.5391 45.5967 17.5924 45.45C17.6524 45.3033 17.7458 45.1633 17.8724 45.03C17.9991 44.8967 18.1658 44.7667 18.3724 44.64C18.5791 44.5067 18.8324 44.3733 19.1324 44.24L20.5724 43.61ZM31.0495 45.41C31.0495 45.6833 31.0562 45.9 31.0695 46.06C31.0829 46.22 31.1162 46.3433 31.1695 46.43C31.2295 46.51 31.3129 46.5633 31.4195 46.59C31.5262 46.6167 31.6762 46.6367 31.8695 46.65V47H29.2095V46.65C29.4029 46.6367 29.5562 46.6167 29.6695 46.59C29.7829 46.5633 29.8695 46.51 29.9295 46.43C29.9895 46.35 30.0262 46.2367 30.0395 46.09C30.0595 45.9367 30.0695 45.7333 30.0695 45.48V41.29C30.0695 40.8967 30.0629 40.5833 30.0495 40.35C30.0429 40.1167 30.0262 39.94 29.9995 39.82C29.9862 39.74 29.9629 39.6767 29.9295 39.63C29.9029 39.5767 29.8595 39.5367 29.7995 39.51C29.7395 39.4767 29.6595 39.4533 29.5595 39.44C29.4595 39.4267 29.3362 39.42 29.1895 39.42V39.08L31.0295 38.7V42.51H31.0695C31.1695 42.3767 31.2929 42.2567 31.4395 42.15C31.5929 42.0367 31.7562 41.94 31.9295 41.86C32.1029 41.78 32.2829 41.7167 32.4695 41.67C32.6629 41.6233 32.8495 41.6 33.0295 41.6C33.3362 41.6 33.6162 41.6533 33.8695 41.76C34.1295 41.8667 34.3295 42.01 34.4695 42.19C34.5829 42.3433 34.6662 42.5467 34.7195 42.8C34.7729 43.0467 34.7995 43.3833 34.7995 43.81V45.41C34.7995 45.6833 34.8062 45.9 34.8195 46.06C34.8329 46.2133 34.8662 46.3333 34.9195 46.42C34.9795 46.5067 35.0629 46.5633 35.1695 46.59C35.2762 46.6167 35.4262 46.6367 35.6195 46.65V47H32.9695V46.65C33.1562 46.6433 33.3062 46.6267 33.4195 46.6C33.5329 46.5667 33.6162 46.51 33.6695 46.43C33.7295 46.35 33.7662 46.2367 33.7795 46.09C33.7995 45.9367 33.8095 45.7333 33.8095 45.48V44.22C33.8095 43.4733 33.7229 42.9433 33.5495 42.63C33.3762 42.31 33.0862 42.15 32.6795 42.15C32.3662 42.15 32.0795 42.23 31.8195 42.39C31.5662 42.55 31.3662 42.77 31.2195 43.05C31.1862 43.1233 31.1562 43.1933 31.1295 43.26C31.1095 43.32 31.0929 43.39 31.0795 43.47C31.0662 43.55 31.0562 43.6433 31.0495 43.75C31.0495 43.85 31.0495 43.9767 31.0495 44.13V45.41ZM47.0443 46.16H47.0043C46.7643 46.5 46.5076 46.7433 46.2343 46.89C45.9676 47.03 45.651 47.1 45.2843 47.1C44.9043 47.1 44.5543 47.0333 44.2343 46.9C43.921 46.76 43.6476 46.57 43.4143 46.33C43.1876 46.0833 43.0076 45.79 42.8743 45.45C42.7476 45.11 42.6843 44.74 42.6843 44.34C42.6843 43.9467 42.7476 43.5833 42.8743 43.25C43.0076 42.91 43.1876 42.62 43.4143 42.38C43.6476 42.1333 43.9243 41.9433 44.2443 41.81C44.5643 41.67 44.911 41.6 45.2843 41.6C45.6043 41.6 45.8876 41.6533 46.1343 41.76C46.3876 41.8667 46.631 42.0367 46.8643 42.27V41.25C46.8643 40.87 46.8576 40.5533 46.8443 40.3C46.8376 40.0467 46.8243 39.8733 46.8043 39.78C46.771 39.6333 46.6776 39.53 46.5243 39.47C46.371 39.41 46.121 39.38 45.7743 39.38V39.08L47.8243 38.7V44.47C47.8243 44.93 47.8276 45.31 47.8343 45.61C47.841 45.9033 47.861 46.1133 47.8943 46.24C47.9143 46.32 47.9376 46.3867 47.9643 46.44C47.9976 46.4933 48.041 46.5367 48.0943 46.57C48.1543 46.5967 48.231 46.6167 48.3243 46.63C48.4243 46.6433 48.551 46.65 48.7043 46.65V46.99L47.0443 47.1V46.16ZM46.8443 43.95C46.8443 43.6033 46.8243 43.34 46.7843 43.16C46.751 42.98 46.681 42.8233 46.5743 42.69C46.421 42.49 46.2243 42.34 45.9843 42.24C45.751 42.1333 45.5176 42.08 45.2843 42.08C44.8043 42.08 44.4376 42.28 44.1843 42.68C43.9376 43.0733 43.8143 43.61 43.8143 44.29C43.8143 44.6433 43.8443 44.9633 43.9043 45.25C43.971 45.5367 44.0643 45.7833 44.1843 45.99C44.311 46.19 44.4643 46.3467 44.6443 46.46C44.831 46.5667 45.0443 46.62 45.2843 46.62C45.4043 46.62 45.5243 46.6067 45.6443 46.58C45.771 46.5533 45.891 46.5133 46.0043 46.46C46.1243 46.4 46.2343 46.3333 46.3343 46.26C46.4343 46.18 46.5176 46.09 46.5843 45.99C46.6776 45.8433 46.7443 45.6667 46.7843 45.46C46.8243 45.2533 46.8443 44.97 46.8443 44.61V43.95ZM57.5823 45.41C57.5823 45.67 57.5923 45.88 57.6123 46.04C57.639 46.1933 57.6857 46.3167 57.7523 46.41C57.819 46.4967 57.9123 46.5567 58.0323 46.59C58.1523 46.6233 58.3123 46.6433 58.5123 46.65V47H55.6423V46.65C55.8423 46.6433 56.0057 46.6233 56.1323 46.59C56.259 46.55 56.3557 46.49 56.4223 46.41C56.4957 46.3233 56.5423 46.2067 56.5623 46.06C56.589 45.9067 56.6023 45.7133 56.6023 45.48V44.2C56.6023 43.8133 56.5957 43.4967 56.5823 43.25C56.5757 42.9967 56.559 42.8233 56.5323 42.73C56.499 42.5767 56.4223 42.4733 56.3023 42.42C56.1823 42.36 55.9557 42.33 55.6223 42.33V41.98L57.5823 41.6V45.41ZM56.4323 39.57C56.4323 39.3967 56.4923 39.25 56.6123 39.13C56.7323 39.01 56.879 38.95 57.0523 38.95C57.2257 38.95 57.3723 39.01 57.4923 39.13C57.6123 39.25 57.6723 39.3967 57.6723 39.57C57.6723 39.7433 57.6123 39.89 57.4923 40.01C57.3723 40.13 57.2257 40.19 57.0523 40.19C56.879 40.19 56.7323 40.13 56.6123 40.01C56.4923 39.89 56.4323 39.7433 56.4323 39.57ZM67.8217 48.57C67.5151 49.2567 67.0384 49.6 66.3917 49.6C65.9717 49.6 65.7617 49.4433 65.7617 49.13C65.7617 48.9633 65.8184 48.84 65.9317 48.76C66.0517 48.6867 66.2684 48.6233 66.5817 48.57C66.7217 48.55 66.8417 48.52 66.9417 48.48C67.0417 48.4467 67.1317 48.4 67.2117 48.34C67.2917 48.2867 67.3617 48.2167 67.4217 48.13C67.4884 48.0433 67.5517 47.9367 67.6117 47.81L67.9617 47.11L66.0417 42.94C65.9551 42.7533 65.8784 42.6067 65.8117 42.5C65.7517 42.3867 65.6851 42.3 65.6117 42.24C65.5451 42.1733 65.4684 42.13 65.3817 42.11C65.2951 42.0833 65.1851 42.0633 65.0517 42.05V41.7H67.7017V42.05C67.2551 42.05 67.0317 42.16 67.0317 42.38C67.0317 42.4667 67.0584 42.6033 67.1117 42.79C67.1651 42.9767 67.2317 43.1667 67.3117 43.36L68.4117 46.02H68.4617L69.3717 43.77C69.4584 43.55 69.5284 43.37 69.5817 43.23C69.6417 43.09 69.6851 42.9767 69.7117 42.89C69.7451 42.7967 69.7651 42.72 69.7717 42.66C69.7851 42.6 69.7917 42.5433 69.7917 42.49C69.7917 42.3167 69.7417 42.2 69.6417 42.14C69.5484 42.08 69.3651 42.05 69.0917 42.05V41.7H71.2917V42.05C71.1651 42.05 71.0584 42.0667 70.9717 42.1C70.8851 42.1333 70.7951 42.21 70.7017 42.33C70.6151 42.4433 70.5151 42.61 70.4017 42.83C70.2951 43.05 70.1617 43.3467 70.0017 43.72L67.8217 48.57ZM81.1408 44.04C80.7608 44.1867 80.4374 44.33 80.1708 44.47C79.9108 44.61 79.7008 44.75 79.5408 44.89C79.3808 45.03 79.2641 45.17 79.1908 45.31C79.1241 45.45 79.0908 45.5933 79.0908 45.74C79.0908 45.96 79.1641 46.14 79.3108 46.28C79.4574 46.42 79.6508 46.49 79.8908 46.49C80.0641 46.49 80.2241 46.4467 80.3708 46.36C80.5241 46.2733 80.6574 46.1567 80.7708 46.01C80.8841 45.8567 80.9741 45.68 81.0408 45.48C81.1074 45.2733 81.1408 45.0567 81.1408 44.83V44.04ZM81.1408 43.61V43.2C81.1408 42.3867 80.7941 41.98 80.1008 41.98C79.9874 41.98 79.8908 41.99 79.8108 42.01C79.7308 42.03 79.6641 42.0633 79.6108 42.11C79.5574 42.1567 79.5074 42.2233 79.4608 42.31C79.4208 42.3967 79.3808 42.5033 79.3408 42.63C79.2674 42.8233 79.1941 42.9533 79.1208 43.02C79.0541 43.08 78.9541 43.11 78.8208 43.11C78.4874 43.11 78.3208 42.9433 78.3208 42.61C78.3208 42.29 78.4908 42.0433 78.8308 41.87C79.1708 41.69 79.6541 41.6 80.2808 41.6C80.9474 41.6 81.4208 41.72 81.7008 41.96C81.9808 42.1933 82.1208 42.5933 82.1208 43.16V45.4C82.1208 46.16 82.2708 46.54 82.5708 46.54C82.6641 46.54 82.7541 46.53 82.8408 46.51C82.9274 46.4833 83.0008 46.42 83.0608 46.32L83.2008 46.56C83.1208 46.7133 82.9741 46.8433 82.7608 46.95C82.5474 47.05 82.3241 47.1 82.0908 47.1C81.7974 47.1 81.5774 47.0067 81.4308 46.82C81.2908 46.6333 81.2208 46.37 81.2208 46.03H81.1708C80.9974 46.3567 80.7574 46.6167 80.4508 46.81C80.1441 46.9967 79.8041 47.09 79.4308 47.09C79.0108 47.09 78.6808 46.9833 78.4408 46.77C78.2008 46.5567 78.0808 46.27 78.0808 45.91C78.0808 45.75 78.1074 45.5967 78.1608 45.45C78.2208 45.3033 78.3141 45.1633 78.4408 45.03C78.5674 44.8967 78.7341 44.7667 78.9408 44.64C79.1474 44.5067 79.4008 44.3733 79.7008 44.24L81.1408 43.61ZM102.142 44.04C101.762 44.1867 101.438 44.33 101.172 44.47C100.912 44.61 100.702 44.75 100.542 44.89C100.382 45.03 100.265 45.17 100.192 45.31C100.125 45.45 100.092 45.5933 100.092 45.74C100.092 45.96 100.165 46.14 100.312 46.28C100.458 46.42 100.652 46.49 100.892 46.49C101.065 46.49 101.225 46.4467 101.372 46.36C101.525 46.2733 101.658 46.1567 101.772 46.01C101.885 45.8567 101.975 45.68 102.042 45.48C102.108 45.2733 102.142 45.0567 102.142 44.83V44.04ZM102.142 43.61V43.2C102.142 42.3867 101.795 41.98 101.102 41.98C100.988 41.98 100.892 41.99 100.812 42.01C100.732 42.03 100.665 42.0633 100.612 42.11C100.558 42.1567 100.508 42.2233 100.462 42.31C100.422 42.3967 100.382 42.5033 100.342 42.63C100.268 42.8233 100.195 42.9533 100.122 43.02C100.055 43.08 99.9549 43.11 99.8216 43.11C99.4882 43.11 99.3216 42.9433 99.3216 42.61C99.3216 42.29 99.4916 42.0433 99.8316 41.87C100.172 41.69 100.655 41.6 101.282 41.6C101.948 41.6 102.422 41.72 102.702 41.96C102.982 42.1933 103.122 42.5933 103.122 43.16V45.4C103.122 46.16 103.272 46.54 103.572 46.54C103.665 46.54 103.755 46.53 103.842 46.51C103.928 46.4833 104.002 46.42 104.062 46.32L104.202 46.56C104.122 46.7133 103.975 46.8433 103.762 46.95C103.548 47.05 103.325 47.1 103.092 47.1C102.798 47.1 102.578 47.0067 102.432 46.82C102.292 46.6333 102.222 46.37 102.222 46.03H102.172C101.998 46.3567 101.758 46.6167 101.452 46.81C101.145 46.9967 100.805 47.09 100.432 47.09C100.012 47.09 99.6816 46.9833 99.4416 46.77C99.2016 46.5567 99.0816 46.27 99.0816 45.91C99.0816 45.75 99.1082 45.5967 99.1616 45.45C99.2216 45.3033 99.3149 45.1633 99.4416 45.03C99.5682 44.8967 99.7349 44.7667 99.9416 44.64C100.148 44.5067 100.402 44.3733 100.702 44.24L102.142 43.61ZM115.179 43.8C115.179 43.5533 115.142 43.3267 115.069 43.12C114.995 42.9067 114.892 42.7267 114.759 42.58C114.625 42.4267 114.469 42.3067 114.289 42.22C114.109 42.1333 113.915 42.09 113.709 42.09C113.469 42.09 113.252 42.1433 113.059 42.25C112.872 42.3567 112.709 42.51 112.569 42.71C112.435 42.9033 112.332 43.14 112.259 43.42C112.185 43.7 112.149 44.01 112.149 44.35C112.149 44.6967 112.185 45.01 112.259 45.29C112.332 45.57 112.435 45.81 112.569 46.01C112.709 46.2033 112.875 46.3533 113.069 46.46C113.262 46.5667 113.479 46.62 113.719 46.62C113.992 46.62 114.239 46.5567 114.459 46.43C114.679 46.3033 114.845 46.1233 114.959 45.89C115.105 45.5967 115.179 45.1933 115.179 44.68V43.8ZM115.209 46.28H115.169C114.935 46.5733 114.692 46.7833 114.439 46.91C114.192 47.0367 113.892 47.1 113.539 47.1C113.165 47.1 112.825 47.0367 112.519 46.91C112.212 46.7767 111.945 46.5933 111.719 46.36C111.499 46.12 111.325 45.8367 111.199 45.51C111.079 45.1767 111.019 44.8133 111.019 44.42C111.019 44.0267 111.085 43.66 111.219 43.32C111.352 42.9733 111.535 42.6733 111.769 42.42C112.002 42.1667 112.275 41.9667 112.589 41.82C112.902 41.6733 113.239 41.6 113.599 41.6C113.959 41.6 114.305 41.6733 114.639 41.82C114.972 41.9667 115.249 42.1633 115.469 42.41L115.909 41.72H116.159V47.9C116.159 48.18 116.165 48.4 116.179 48.56C116.199 48.72 116.242 48.8433 116.309 48.93C116.382 49.0167 116.485 49.0733 116.619 49.1C116.759 49.1267 116.949 49.1433 117.189 49.15V49.5H114.139V49.15C114.352 49.1433 114.525 49.12 114.659 49.08C114.799 49.0467 114.909 48.9833 114.989 48.89C115.069 48.8033 115.125 48.6833 115.159 48.53C115.192 48.3833 115.209 48.1967 115.209 47.97V46.28ZM125.702 45.41C125.702 45.67 125.712 45.88 125.732 46.04C125.759 46.1933 125.805 46.3167 125.872 46.41C125.939 46.4967 126.032 46.5567 126.152 46.59C126.272 46.6233 126.432 46.6433 126.632 46.65V47H123.762V46.65C123.962 46.6433 124.125 46.6233 124.252 46.59C124.379 46.55 124.475 46.49 124.542 46.41C124.615 46.3233 124.662 46.2067 124.682 46.06C124.709 45.9067 124.722 45.7133 124.722 45.48V44.2C124.722 43.8133 124.715 43.4967 124.702 43.25C124.695 42.9967 124.679 42.8233 124.652 42.73C124.619 42.5767 124.542 42.4733 124.422 42.42C124.302 42.36 124.075 42.33 123.742 42.33V41.98L125.702 41.6V45.41ZM124.552 39.57C124.552 39.3967 124.612 39.25 124.732 39.13C124.852 39.01 124.999 38.95 125.172 38.95C125.345 38.95 125.492 39.01 125.612 39.13C125.732 39.25 125.792 39.3967 125.792 39.57C125.792 39.7433 125.732 39.89 125.612 40.01C125.492 40.13 125.345 40.19 125.172 40.19C124.999 40.19 124.852 40.13 124.732 40.01C124.612 39.89 124.552 39.7433 124.552 39.57ZM135.27 45.44C135.27 45.6933 135.28 45.8967 135.3 46.05C135.32 46.2033 135.36 46.3233 135.42 46.41C135.487 46.4967 135.577 46.5567 135.69 46.59C135.81 46.6233 135.967 46.6433 136.16 46.65V47H133.4V46.65C133.6 46.6433 133.76 46.6233 133.88 46.59C134 46.55 134.093 46.49 134.16 46.41C134.233 46.33 134.28 46.22 134.3 46.08C134.327 45.9333 134.34 45.7433 134.34 45.51V41.2C134.34 40.84 134.333 40.54 134.32 40.3C134.313 40.0533 134.3 39.8867 134.28 39.8C134.247 39.6467 134.167 39.5433 134.04 39.49C133.92 39.4367 133.7 39.41 133.38 39.41V39.07L135.27 38.7V45.44ZM146.272 44.04C145.892 44.1867 145.569 44.33 145.302 44.47C145.042 44.61 144.832 44.75 144.672 44.89C144.512 45.03 144.395 45.17 144.322 45.31C144.255 45.45 144.222 45.5933 144.222 45.74C144.222 45.96 144.295 46.14 144.442 46.28C144.589 46.42 144.782 46.49 145.022 46.49C145.195 46.49 145.355 46.4467 145.502 46.36C145.655 46.2733 145.789 46.1567 145.902 46.01C146.015 45.8567 146.105 45.68 146.172 45.48C146.239 45.2733 146.272 45.0567 146.272 44.83V44.04ZM146.272 43.61V43.2C146.272 42.3867 145.925 41.98 145.232 41.98C145.119 41.98 145.022 41.99 144.942 42.01C144.862 42.03 144.795 42.0633 144.742 42.11C144.689 42.1567 144.639 42.2233 144.592 42.31C144.552 42.3967 144.512 42.5033 144.472 42.63C144.399 42.8233 144.325 42.9533 144.252 43.02C144.185 43.08 144.085 43.11 143.952 43.11C143.619 43.11 143.452 42.9433 143.452 42.61C143.452 42.29 143.622 42.0433 143.962 41.87C144.302 41.69 144.785 41.6 145.412 41.6C146.079 41.6 146.552 41.72 146.832 41.96C147.112 42.1933 147.252 42.5933 147.252 43.16V45.4C147.252 46.16 147.402 46.54 147.702 46.54C147.795 46.54 147.885 46.53 147.972 46.51C148.059 46.4833 148.132 46.42 148.192 46.32L148.332 46.56C148.252 46.7133 148.105 46.8433 147.892 46.95C147.679 47.05 147.455 47.1 147.222 47.1C146.929 47.1 146.709 47.0067 146.562 46.82C146.422 46.6333 146.352 46.37 146.352 46.03H146.302C146.129 46.3567 145.889 46.6167 145.582 46.81C145.275 46.9967 144.935 47.09 144.562 47.09C144.142 47.09 143.812 46.9833 143.572 46.77C143.332 46.5567 143.212 46.27 143.212 45.91C143.212 45.75 143.239 45.5967 143.292 45.45C143.352 45.3033 143.445 45.1633 143.572 45.03C143.699 44.8967 143.865 44.7667 144.072 44.64C144.279 44.5067 144.532 44.3733 144.832 44.24L146.272 43.61Z" fill="#987E53"/>
</svg>
